<svg width="30" height="28" viewBox="0 0 30 28" fill="none" xmlns="http://www.w3.org/2000/svg">
<path d="M14.6457 14.7576C16.0009 14.7576 17.3257 14.3541 18.4525 13.5981C19.5793 12.8421 20.4576 11.7675 20.9762 10.5103C21.4948 9.25308 21.6305 7.86968 21.3661 6.53504C21.1017 5.20039 20.4491 3.97443 19.4908 3.01221C18.5326 2.04998 17.3116 1.39469 15.9825 1.12922C14.6533 0.863737 13.2756 0.99999 12.0236 1.52074C10.7715 2.0415 9.70138 2.92336 8.94847 4.05482C8.19556 5.18628 7.7937 6.51652 7.7937 7.87732C7.7937 9.70209 8.51561 11.4521 9.80061 12.7424C11.0856 14.0327 12.8285 14.7576 14.6457 14.7576ZM14.6457 2.96281C15.6137 2.96281 16.56 3.25104 17.3649 3.79106C18.1697 4.33107 18.797 5.09861 19.1675 5.99662C19.5379 6.89463 19.6348 7.88277 19.446 8.83609C19.2571 9.78941 18.791 10.6651 18.1065 11.3524C17.422 12.0397 16.55 12.5078 15.6006 12.6974C14.6512 12.887 13.6671 12.7897 12.7728 12.4177C11.8784 12.0458 11.1141 11.4159 10.5763 10.6077C10.0385 9.79948 9.75142 8.84931 9.75142 7.87732C9.75142 6.57391 10.2671 5.32389 11.1849 4.40224C12.1028 3.48059 13.3477 2.96281 14.6457 2.96281Z" fill="white"/>
<rect x="1.28784" y="17.5234" width="27.0886" height="9.33297" rx="4.66648" stroke="white" stroke-width="1.5"/>
</svg>
