<svg width="31" height="31" viewBox="0 0 31 31" fill="none" xmlns="http://www.w3.org/2000/svg">
<path d="M19.5578 9.48986L17.34 8.83627L16.0328 6.92848C15.9702 6.84653 15.8896 6.78013 15.7972 6.73441C15.7048 6.68875 15.6031 6.66492 15.5 6.66492C15.3969 6.66492 15.2952 6.68875 15.2028 6.73441C15.1104 6.78013 15.0298 6.84653 14.9672 6.92848L13.66 8.83627L11.4422 9.48986C11.3416 9.5195 11.2496 9.57323 11.1745 9.64641C11.0992 9.71958 11.043 9.80993 11.0106 9.90971C10.9781 10.0095 10.9704 10.1157 10.9883 10.2191C11.0061 10.3225 11.0489 10.42 11.1129 10.5032L12.5234 12.3354L12.4588 14.6468C12.4559 14.7518 12.4785 14.8558 12.5248 14.95C12.5712 15.0442 12.6398 15.1257 12.7247 15.1873C12.8097 15.2491 12.9083 15.2891 13.0122 15.3041C13.1161 15.3191 13.2221 15.3085 13.321 15.2733L15.5 14.4983L17.6784 15.2733C17.7773 15.3085 17.8833 15.3191 17.9872 15.3041C18.091 15.2891 18.1897 15.2491 18.2746 15.1873C18.3596 15.1257 18.4281 15.0442 18.4745 14.95C18.5208 14.8558 18.5435 14.7518 18.5406 14.6468L18.476 12.3354L19.8865 10.5032C19.9505 10.42 19.9933 10.3225 20.0111 10.2191C20.0289 10.1157 20.0213 10.0095 19.9888 9.90971C19.9564 9.80993 19.9001 9.71958 19.8249 9.64641C19.7497 9.57323 19.6577 9.5195 19.5571 9.48986H19.5578ZM17.3129 11.7296C17.2223 11.8473 17.1751 11.9926 17.1792 12.141L17.2231 13.7401L15.7164 13.204C15.5763 13.155 15.4237 13.155 15.2836 13.204L13.7769 13.7401L13.8208 12.1416C13.8249 11.9932 13.7777 11.8479 13.6871 11.7303L12.7119 10.4625L14.2464 10.0104C14.3889 9.96835 14.5125 9.87852 14.5965 9.75594L15.5 8.4365L16.4042 9.75529C16.4881 9.87787 16.6117 9.96771 16.7542 10.0098L18.2887 10.4618L17.3129 11.7296Z" fill="#FFCE47"/>
<path d="M26.4792 7.74998H24.5417V4.52081C24.5417 4.00696 24.3376 3.51415 23.9742 3.15079C23.6109 2.78744 23.118 2.58331 22.6042 2.58331H8.39587C7.88205 2.58331 7.38921 2.78744 7.02587 3.15079C6.66252 3.51415 6.45837 4.00696 6.45837 4.52081V7.74998H4.52087C4.00702 7.74998 3.51421 7.95413 3.15086 8.31747C2.7875 8.68082 2.58337 9.17366 2.58337 9.68748V12.5937C2.5845 13.8707 3.08935 15.0956 3.98828 16.0025C4.88721 16.9094 6.10763 17.4251 7.3845 17.4375C7.927 18.5727 8.69858 19.5833 9.65066 20.4058C10.6028 21.2283 11.7147 21.8448 12.9167 22.2166V22.6041C12.9167 22.9467 12.7806 23.2752 12.5384 23.5175C12.2961 23.7597 11.9676 23.8958 11.625 23.8958H9.68754C8.83142 23.8968 8.0107 24.2374 7.40529 24.8427C6.79996 25.4481 6.45941 26.2689 6.45837 27.125C6.45837 27.4675 6.59445 27.7961 6.8367 28.0383C7.07896 28.2806 7.40749 28.4166 7.75004 28.4166H23.25C23.5926 28.4166 23.9211 28.2806 24.1634 28.0383C24.4056 27.7961 24.5417 27.4675 24.5417 27.125C24.5407 26.2689 24.2001 25.4481 23.5948 24.8427C22.9894 24.2374 22.1687 23.8968 21.3125 23.8958H19.375C19.0325 23.8958 18.704 23.7597 18.4617 23.5175C18.2195 23.2752 18.0834 22.9467 18.0834 22.6041V22.2166C19.2853 21.8448 20.3973 21.2283 21.3494 20.4058C22.3015 19.5833 23.0731 18.5727 23.6156 17.4375C24.8925 17.4251 26.1129 16.9094 27.0118 16.0025C27.9107 15.0956 28.4155 13.8707 28.4167 12.5937V9.68748C28.4167 9.17366 28.2126 8.68082 27.8492 8.31747C27.4859 7.95413 26.993 7.74998 26.4792 7.74998ZM3.87504 12.5937V9.68748C3.87504 9.5162 3.94309 9.35191 4.0642 9.23081C4.18532 9.10972 4.34959 9.04165 4.52087 9.04165H6.45837V13.4068C6.45837 14.3175 6.5918 15.2234 6.85427 16.0954C6.02319 15.9596 5.26739 15.533 4.72171 14.8916C4.17602 14.2502 3.87596 13.4358 3.87504 12.5937ZM23.25 27.125H7.75004C7.75004 26.6112 7.95419 26.1183 8.31753 25.755C8.68088 25.3916 9.17372 25.1875 9.68754 25.1875H21.3125C21.8264 25.1875 22.3192 25.3916 22.6825 25.755C23.0459 26.1183 23.25 26.6112 23.25 27.125ZM17.154 23.8958H13.8603C14.0885 23.5037 14.2086 23.0579 14.2084 22.6041V22.4989C15.0638 22.6392 15.9363 22.6392 16.7917 22.4989V22.6041C16.7951 23.0593 16.9202 23.5053 17.154 23.8958ZM15.5 21.3125C13.4248 21.2893 11.4434 20.444 9.99057 18.962C8.5377 17.4799 7.73196 15.4822 7.75004 13.4068V4.52081C7.75004 4.34953 7.81811 4.18526 7.93921 4.06414C8.0603 3.94302 8.2246 3.87498 8.39587 3.87498H22.6042C22.7755 3.87498 22.9398 3.94302 23.0609 4.06414C23.182 4.18526 23.25 4.34953 23.25 4.52081V13.4068C23.2681 15.4822 22.4624 17.4799 21.0095 18.962C19.5567 20.444 17.5753 21.2893 15.5 21.3125ZM27.125 12.5937C27.1241 13.4358 26.8241 14.2502 26.2784 14.8916C25.7327 15.533 24.9769 15.9596 24.1458 16.0954C24.4083 15.2234 24.5417 14.3175 24.5417 13.4068V9.04165H26.4792C26.6505 9.04165 26.8148 9.10972 26.9359 9.23081C27.057 9.35191 27.125 9.5162 27.125 9.68748V12.5937Z" fill="#FFCE47"/>
</svg>
