<svg width="27" height="27" viewBox="0 0 27 27" fill="none" xmlns="http://www.w3.org/2000/svg">
<path d="M13.5315 0.501831L9.83777 7.88935H17.2253L13.5315 0.501831Z" fill="#ED1C24"/>
<path d="M17.2252 7.8894H9.8377L7.01306 13.5387H20.0499L17.2252 7.8894Z" fill="#FBB03B"/>
<path d="M20.0499 13.5387H7.01311L3.97119 19.6225H23.0918L20.0499 13.5387Z" fill="#39B54A"/>
<path d="M23.0919 19.6226H3.97124L0.929321 25.7064H26.1338L23.0919 19.6226Z" fill="#06AAE9"/>
<path d="M26.5249 25.512L23.483 19.4282L20.441 13.3444L17.6164 7.69509L13.9226 0.307596C13.8825 0.240248 13.8255 0.184481 13.7573 0.145753C13.6892 0.107029 13.6121 0.0866699 13.5337 0.0866699C13.4553 0.0866699 13.3782 0.107029 13.31 0.145753C13.2419 0.184481 13.1849 0.240248 13.1448 0.307596L9.45102 7.69509L6.62638 13.3444L3.58446 19.4282L0.542541 25.512C0.509505 25.5782 0.493874 25.6516 0.497125 25.7254C0.500375 25.7992 0.522403 25.871 0.561118 25.934C0.599833 25.9969 0.653962 26.0489 0.718385 26.0851C0.782809 26.1214 0.855402 26.1406 0.929299 26.1409H26.1338C26.208 26.1413 26.2812 26.1226 26.3462 26.0868C26.4112 26.0509 26.4659 25.9989 26.5052 25.9358C26.5444 25.8728 26.5668 25.8007 26.5702 25.7265C26.5737 25.6523 26.5581 25.5785 26.5249 25.512ZM13.5315 1.47352L16.5222 7.45478H10.5409L13.5315 1.47352ZM10.1063 8.3239H16.9567L19.3468 13.1041H7.71626L10.1063 8.3239ZM7.2817 13.9732H19.7814L22.3887 19.1879H4.67434L7.2817 13.9732ZM1.63242 25.2717L4.23978 20.057H22.8233L25.4307 25.2717H1.63242Z" fill="#003F54"/>
</svg>
